#!OML:ASF I:\Actors\actors\Patient Classification 2\Patient 1\Session 1\actor1.ASF
:FULLY-SPECIFIED
:DEGREES
561
root -0.430321 18.716 5.60223 2.78057 -1.66541 -1.64653
lowerback 4.02554 1.95619 -3.79216
upperback -2.17454 2.41332 0.598386
thorax -4.69599 1.32597 2.54864
lowerneck -14.6354 -3.42695 -2.96587
upperneck 10.5472 -4.83819 5.93199
head 5.8058 -2.02409 1.90954
rclavicle 6.85341e-015 6.75868e-015
rhumerus 0.78567 4.67889 -48.1119
rradius 97.4177
rwrist -29.4221
rhand -18.0177 -50.0866
rfingers 7.12502
rthumb 8.25326 -79.9053
lclavicle 6.85341e-015 6.75868e-015
lhumerus 11.0206 -11.622 52.4409
lradius 96.4706
lwrist 52.8709
lhand -23.0488 -18.7866
lfingers 7.12502
lthumb 3.39598 11.1661
rfemur 0 0 0
rtibia 0
rfoot 0 0
rtoes 0
lfemur -5.95731 -4.75992 -13.3613
ltibia 22.4963
lfoot -24.2246 15.9988
ltoes -53.7331
562
root -0.433308 18.715 5.60293 2.76958 -1.62309 -1.66317
lowerback 3.97325 1.9432 -3.74588
upperback -2.14131 2.40125 0.5987
thorax -4.62851 1.31693 2.52645
lowerneck -14.6174 -3.4315 -3.01498
upperneck 10.4971 -4.83617 5.96225
head 5.7889 -2.02393 1.92759
rclavicle -1.91439e-014 5.96354e-015
rhumerus 0.794702 4.48471 -48.0415
rradius 97.3545
rwrist -29.438
rhand -17.8875 -50.3994
rfingers 7.12502
rthumb 8.37891 -80.2132
lclavicle -1.91439e-014 5.96354e-015
lhumerus 11.0269 -11.7109 52.616
lradius 96.5523
lwrist 52.7273
lhand -23.1283 -18.8505
lfingers 7.12502
lthumb 3.31916 11.1034
rfemur 0 0 0
rtibia 0
rfoot 0 0
rtoes 0
lfemur -5.92328 -4.74211 -13.3202
ltibia 22.4511
lfoot -24.1872 15.8991
ltoes -53.6597
563
root -0.43746 18.7146 5.60364 2.78217 -1.57092 -1.67708
lowerback 3.90646 1.93406 -3.7098
upperback -2.12351 2.39367 0.590237
thorax -4.56936 1.3107 2.50063
lowerneck -14.5517 -3.43138 -3.03051
upperneck 10.4196 -4.83229 5.97923
head 5.75416 -2.0238 1.93682
rclavicle 2.93052e-014 1.23246e-014
rhumerus 0.781785 4.26055 -48.0096
rradius 97.2967
rwrist -29.3225
rhand -17.5754 -50.6436
rfingers 7.12502
rthumb 8.68013 -80.4452
lclavicle 2.93052e-014 1.23246e-014
lhumerus 11.0651 -11.7895 52.8353
lradius 96.5806
lwrist 52.5132
lhand -23.0976 -18.7025
lfingers 7.12502
lthumb 3.34883 11.2509
rfemur 0 0 0
rtibia 0
rfoot 0 0
rtoes 0
lfemur -5.92561 -4.77443 -13.281
ltibia 22.4124
lfoot -24.2001 15.851
ltoes -53.6379
564
root -0.443316 18.7145 5.60545 2.78611 -1.49126 -1.69006
lowerback 3.83985 1.90522 -3.69266
upperback -2.09983 2.35861 0.579626
thorax -4.50296 1.29117 2.48559
lowerneck -14.5143 -3.41204 -3.02023
upperneck 10.354 -4.80613 5.98445
head 5.72594 -2.01197 1.93992
rclavicle 5.59858e-015 3.97569e-015
rhumerus 0.803486 4.06148 -48.0447
rradius 97.2494
rwrist -29.2213
rhand -17.3881 -50.7045
rfingers 7.12502
rthumb 8.8608 -80.4984
lclavicle 5.59858e-015 3.97569e-015
lhumerus 11.1208 -11.8282 53.0126
lradius 96.5375
lwrist 52.3458
lhand -23.1311 -18.5911
lfingers 7.12502
lthumb 3.31646 11.3628
rfemur 0 0 0
rtibia 0
rfoot 0 0
rtoes 0
lfemur -5.9292 -4.85138 -13.2444
ltibia 22.3885
lfoot -24.1842 15.8652
ltoes -53.6801
565
root -0.44938 18.7148 5.60703 2.79118 -1.41244 -1.73519
lowerback 3.81142 1.8687 -3.61905
upperback -2.10417 2.31466 0.5702
thorax -4.48442 1.26677 2.43905
lowerneck -14.4881 -3.40973 -3.03437
upperneck 10.3411 -4.79917 5.97887
head 5.71736 -2.01029 1.94144
rclavicle -1.59696e-014 -1.15295e-014
rhumerus 0.778679 3.94124 -48.1199
rradius 97.2824
rwrist -29.2706
rhand -17.4833 -50.7948
rfingers 7.12502
rthumb 8.76893 -80.5926
lclavicle -1.59696e-014 -1.15295e-014
lhumerus 11.1035 -11.8637 53.0989
lradius 96.4753
lwrist 52.3202
lhand -23.1627 -18.6168
lfingers 7.12502
lthumb 3.28602 11.3377
rfemur 0 0 0
rtibia 0
rfoot 0 0
rtoes 0
lfemur -5.93971 -4.93498 -13.1761
ltibia 22.3772
lfoot -24.1545 15.9215
ltoes -53.7552
566
root -0.454775 18.7157 5.60831 2.79507 -1.35124 -1.75673
lowerback 3.85217 1.84071 -3.52437
upperback -2.16043 2.27925 0.54269
thorax -4.55836 1.24785 2.35809
lowerneck -14.4266 -3.4351 -3.06395
upperneck 10.4003 -4.82829 5.95308
head 5.72704 -2.02785 1.93588
rclavicle -4.40184e-014 5.1684e-015
rhumerus 0.686602 3.85087 -48.2274
rradius 97.3085
rwrist -29.2969
rhand -17.478 -50.924
rfingers 7.12502
rthumb 8.77411 -80.7216
lclavicle -4.40184e-014 5.1684e-015
lhumerus 10.9782 -11.8979 53.2381
lradius 96.435
lwrist 52.2757
lhand -23.0186 -18.498
lfingers 7.12502
lthumb 3.42518 11.4542
rfemur 0 0 0
rtibia 0
rfoot 0 0
rtoes 0
lfemur -5.94967 -5.03601 -13.1389
ltibia 22.3734
lfoot -24.1656 15.9961
ltoes -53.853
567
root -0.459722 18.7162 5.60982 2.7905 -1.3005 -1.74292
lowerback 3.87239 1.81158 -3.46493
upperback -2.19551 2.24122 0.511398
thorax -4.59989 1.22774 2.29426
lowerneck -14.3886 -3.42916 -3.0612
upperneck 10.455 -4.82042 5.92382
head 5.73668 -2.02601 1.92727
rclavicle 2.50034e-016 3.57812e-015
rhumerus 0.635684 3.75383 -48.3601
rradius 97.3291
rwrist -29.2684
rhand -17.3073 -50.9001
rfingers 7.12502
rthumb 8.93881 -80.6907
lclavicle 2.50034e-016 3.57812e-015
lhumerus 10.8409 -11.8553 53.4657
lradius 96.3927
lwrist 52.0952
lhand -22.9562 -18.3052
lfingers 7.12502
lthumb 3.48544 11.6461
rfemur 0 0 0
rtibia 0
rfoot 0 0
rtoes 0
lfemur -5.95265 -5.11602 -13.1417
ltibia 22.3734
lfoot -24.1286 16.0393
ltoes -53.8808
568
root -0.465438 18.7158 5.61076 2.77175 -1.25643 -1.7273
lowerback 3.86063 1.7833 -3.41991
upperback -2.18983 2.20513 0.478456
thorax -4.58151 1.20751 2.23838
lowerneck -14.3597 -3.39076 -2.98536
upperneck 10.431 -4.77815 5.88849
head 5.71962 -2.00593 1.90826
rclavicle 3.20517e-014 2.78299e-015
rhumerus 0.626297 3.62531 -48.5345
rradius 97.3939
rwrist -29.2575
rhand -17.1668 -50.7783
rfingers 7.12502
rthumb 9.0744 -80.5631
lclavicle 3.20517e-014 2.78299e-015
lhumerus 10.7485 -11.7586 53.697
lradius 96.259
lwrist 51.8908
lhand -23.0475 -18.3361
lfingers 7.12502
lthumb 3.39721 11.6166
rfemur 0 0 0
rtibia 0
rfoot 0 0
rtoes 0
lfemur -5.94731 -5.11832 -13.1374
ltibia 22.3726
lfoot -24.034 16.0308
ltoes -53.8276
569
root -0.473075 18.7153 5.61189 2.73953 -1.23363 -1.73402
lowerback 3.87279 1.76642 -3.37431
upperback -2.19893 2.18358 0.453373
thorax -4.59352 1.19527 2.18811
lowerneck -14.2949 -3.37584 -2.92161
upperneck 10.3995 -4.77169 5.89776
head 5.69742 -2.00115 1.90235
rclavicle -1.8341e-015 -7.95139e-016
rhumerus 0.599942 3.51576 -48.7415
rradius 97.4473
rwrist -29.2034
rhand -17.1303 -50.7265
rfingers 7.12502
rthumb 9.10958 -80.5098
lclavicle -1.8341e-015 -7.95139e-016
lhumerus 10.6215 -11.71 53.8823
lradius 96.0279
lwrist 51.7229
lhand -23.2107 -18.6062
lfingers 7.12502
lthumb 3.23964 11.349
rfemur 0 0 0
rtibia 0
rfoot 0 0
rtoes 0
lfemur -5.91571 -5.06046 -13.1013
ltibia 22.3672
lfoot -23.9742 16.0197
ltoes -53.9023
570
root -0.480053 18.715 5.61373 2.72561 -1.23914 -1.74652
lowerback 3.8469 1.75576 -3.34957
upperback -2.20553 2.1721 0.464538
thorax -4.58436 1.18898 2.18743
lowerneck -14.2616 -3.37746 -2.947
upperneck 10.4055 -4.77291 5.92048
head 5.69505 -2.0016 1.91391
rclavicle -2.55042e-014 -6.36111e-015
rhumerus 0.609033 3.45518 -48.9229
rradius 97.505
rwrist -29.156
rhand -17.2092 -50.794
rfingers 7.12502
rthumb 9.03352 -80.5806
lclavicle -2.55042e-014 -6.36111e-015
lhumerus 10.4765 -11.634 54.1223
lradius 95.7753
lwrist 51.4353
lhand -23.3587 -18.9186
lfingers 7.12502
lthumb 3.09672 11.0387
rfemur 0 0 0
rtibia 0
rfoot 0 0
rtoes 0
lfemur -5.88659 -5.01257 -13.0664
ltibia 22.3582
lfoot -23.9348 16.0378
ltoes -54.0583
571
root -0.48503 18.7151 5.61487 2.73396 -1.24021 -1.73189
lowerback 3.78895 1.74616 -3.33051
upperback -2.18663 2.16329 0.478844
thorax -4.53093 1.18326 2.19436
lowerneck -14.2826 -3.38768 -3.00347
upperneck 10.42 -4.77386 5.90714
head 5.70401 -2.00477 1.91845
rclavicle 2.62396e-014 -6.75868e-015
rhumerus 0.665567 3.41612 -49.072
rradius 97.626
rwrist -29.3011
rhand -17.4524 -50.8178
rfingers 7.12502
rthumb 8.79879 -80.6144
lclavicle 2.62396e-014 -6.75868e-015
lhumerus 10.388 -11.4738 54.4096
lradius 95.5595
lwrist 51.0481
lhand -23.3389 -19.0755
lfingers 7.12502
lthumb 3.11578 10.8815
rfemur 0 0 0
rtibia 0
rfoot 0 0
rtoes 0
lfemur -5.89201 -5.02889 -13.0667
ltibia 22.3523
lfoot -23.9311 16.0599
ltoes -54.083
572
root -0.490463 18.7151 5.61478 2.74548 -1.24837 -1.70702
lowerback 3.75554 1.74116 -3.30903
upperback -2.17297 2.15875 0.468576
thorax -4.4961 1.1795 2.1733
lowerneck -14.2849 -3.39859 -2.9971
upperneck 10.4086 -4.78614 5.88496
head 5.70062 -2.01227 1.90924
rclavicle -1.0753e-014 -4.77083e-015
rhumerus 0.719368 3.44094 -49.2477
rradius 97.7778
rwrist -29.5902
rhand -17.737 -50.887
rfingers 7.12502
rthumb 8.52415 -80.6949
lclavicle -1.0753e-014 -4.77083e-015
lhumerus 10.2914 -11.3399 54.5924
lradius 95.3804
lwrist 50.6847
lhand -23.2805 -19.2809
lfingers 7.12502
lthumb 3.17225 10.6753
rfemur 0 0 0
rtibia 0
rfoot 0 0
rtoes 0
lfemur -5.9104 -5.00794 -13.0735
ltibia 22.3526
lfoot -23.9233 16.0676
ltoes -54.1142
573
root -0.496489 18.7156 5.61439 2.76339 -1.29144 -1.71032
lowerback 3.74567 1.73978 -3.25732
upperback -2.18742 2.15891 0.442627
thorax -4.50237 1.17787 2.11749
lowerneck -14.276 -3.38629 -2.89517
upperneck 10.4104 -4.78624 5.85596
head 5.6966 -2.01048 1.88367
rclavicle -1.38963e-014 5.56597e-015
rhumerus 0.742755 3.50318 -49.4927
rradius 97.9107
rwrist -29.7896
rhand -17.7593 -51.2172
rfingers 7.12502
rthumb 8.50267 -81.026
lclavicle -1.38963e-014 5.56597e-015
lhumerus 10.1557 -11.2657 54.7227
lradius 95.1891
lwrist 50.2579
lhand -23.3274 -19.5392
lfingers 7.12502
lthumb 3.12689 10.4176
rfemur 0 0 0
rtibia 0
rfoot 0 0
rtoes 0
lfemur -5.92919 -4.92611 -13.0495
ltibia 22.3566
lfoot -23.8932 16.0922
ltoes -54.2614
574
root -0.502243 18.7174 5.61488 2.77359 -1.34996 -1.74478
lowerback 3.74129 1.74806 -3.16034
upperback -2.19384 2.1745 0.418428
thorax -4.50253 1.18234 2.03689
lowerneck -14.36 -3.38875 -2.81811
upperneck 10.488 -4.80481 5.83456
head 5.73356 -2.01524 1.86146
rclavicle -3.91318e-014 5.1684e-015
rhumerus 0.738304 3.5096 -49.7299
rradius 97.9877
rwrist -29.7009
rhand -17.4261 -51.5347
rfingers 7.12502
rthumb 8.82417 -81.3302
lclavicle -3.91318e-014 5.1684e-015
lhumerus 10.0665 -11.2281 54.8376
lradius 94.993
lwrist 49.7905
lhand -23.4132 -19.738
lfingers 7.12502
lthumb 3.04405 10.22
rfemur 0 0 0
rtibia 0
rfoot 0 0
rtoes 0
lfemur -5.92937 -4.9288 -12.9983
ltibia 22.3626
lfoot -23.9423 16.1591
ltoes -54.3068
575
root -0.507418 18.7186 5.61631 2.75754 -1.40153 -1.76982
lowerback 3.73928 1.76332 -3.10026
upperback -2.1753 2.19833 0.413149
thorax -4.48077 1.19174 1.99626
lowerneck -14.4496 -3.39842 -2.81286
upperneck 10.5355 -4.81881 5.82639
head 5.76376 -2.02007 1.85548
rclavicle -6.45196e-015 -3.18055e-015
rhumerus 0.708149 3.51848 -49.8827
rradius 98.0385
rwrist -29.428
rhand -16.914 -51.6204
rfingers 7.12502
rthumb 9.31836 -81.3945
lclavicle -6.45196e-015 -3.18055e-015
lhumerus 10.0414 -11.208 54.9272
lradius 94.7878
lwrist 49.3173
lhand -23.5482 -20.0226
lfingers 7.12502
lthumb 2.91365 9.9372
rfemur 0 0 0
rtibia 0
rfoot 0 0
rtoes 0
lfemur -5.89467 -4.97941 -12.964
ltibia 22.3728
lfoot -23.9956 16.2386
ltoes -54.236
